# xmcd CD database file
#
# Track frame offsets:
#	150
#	15518
#	31917
#	44767
#	57644
#	71275
#	112826
#	130025
#	163078
#	176471
#	192364
#	202741
#	218499
#	231757
#	246233
#	258807
#	276507
#	291850
#	305392
#	322466
#	337069
#
# Disc length: 4684 seconds
#
# Revision: 0
# Processed by: cddbd v1.5.2PL0 Copyright (c) Steve Scherf et al.
# Submitted via: CDex 1.70beta2
#
DISCID=38124a15
DTITLE=Oscar Peterson - Piano Power - CD 2 - Squatty Roo
DYEAR=2005
DGENRE=Jazz
TTITLE0=Squatty Roo
TTITLE1=After All
TTITLE2=Caravan
TTITLE3=Salute To Garner
TTITLE4=The Way You Look Tonight
TTITLE5=Gal/Padovani/Ray's Blues
TTITLE6=Fine And Dandy
TTITLE7=I Only Have Eyes For You
TTITLE8=Gypsy In My Soul
TTITLE9=Laura
TTITLE10=Turtle Neck
TTITLE11=It's Easy To Remember
TTITLE12=Pooper
TTITLE13=Love For Sale
TTITLE14=Until The Real Thing Comes Along
TTITLE15=You Go To My Head
TTITLE16=These Foolish Things
TTITLE17=I Can't Get Started
TTITLE18=Long Ago And Far Away
TTITLE19=It Ain't Necessarily So
TTITLE20=What Is This Thing Called Love
EXTD=YEAR: 2005
EXTT0=
EXTT1=
EXTT2=
EXTT3=
EXTT4=
EXTT5=
EXTT6=
EXTT7=
EXTT8=
EXTT9=
EXTT10=
EXTT11=
EXTT12=
EXTT13=
EXTT14=
EXTT15=
EXTT16=
EXTT17=
EXTT18=
EXTT19=
EXTT20=
PLAYORDER=
